<?xml version="1.0" encoding="UTF-8" standalone="no"?>
<svg
   xmlns:dc="http://purl.org/dc/elements/1.1/"
   xmlns:cc="http://creativecommons.org/ns#"
   xmlns:rdf="http://www.w3.org/1999/02/22-rdf-syntax-ns#"
   xmlns:svg="http://www.w3.org/2000/svg"
   xmlns="http://www.w3.org/2000/svg"
   id="svg8"
   version="1.1"
   viewBox="0 0 157.42708 157.42709"
   height="595"
   width="595">
  <defs
     id="defs2" />
  <metadata
     id="metadata5">
    <rdf:RDF>
      <cc:Work
         rdf:about="">
        <dc:format>image/svg+xml</dc:format>
        <dc:type
           rdf:resource="http://purl.org/dc/dcmitype/StillImage" />
        <dc:title></dc:title>
      </cc:Work>
    </rdf:RDF>
  </metadata>
  <g
     transform="translate(-24.851936,-56.51265)"
     id="layer1">
    <g
       id="g4561"
       transform="matrix(0.26458333,0,0,0.26458333,24.81225,56.472964)">
      <circle
         style="fill:#28c8c8;fill-opacity:1;stroke:none;stroke-width:4.78809071;stroke-miterlimit:4;stroke-dasharray:none;stroke-opacity:1"
         id="path833"
         cx="297.64999"
         cy="297.64999"
         r="297.5" />
      <path
         class="st1"
         d="m 124.03906,231.642 h 341.57299 c 1.47231,0 2.69922,-1.22692 2.69922,-2.69921 V 91.528364 c 0,-1.472296 -1.22691,-2.699217 -2.69922,-2.699217 H 124.03906 c -1.4723,0 -2.69921,1.226921 -2.69921,2.699217 V 228.94279 c 0,1.47229 1.22691,2.69921 2.69921,2.69921 z M 365.98661,130.78962 c 0,-1.47229 1.22692,-2.6992 2.6992,-2.6992 h 40.12011 c 1.47229,0 2.69921,1.22691 2.69921,2.6992 v 58.15574 c 0,1.47231 -1.22692,2.69922 -2.69921,2.69922 h -40.24281 c -1.47229,0 -2.69919,-1.22691 -2.69919,-2.69922 v -58.15574 z m -93.98167,0 c 0,-1.47229 1.22692,-2.6992 2.69923,-2.6992 h 40.24279 c 1.4723,0 2.69921,1.22691 2.69921,2.6992 v 58.15574 c 0,1.47231 -1.22691,2.69922 -2.69921,2.69922 h -40.24279 c -1.47231,0 -2.69923,-1.22691 -2.69923,-2.69922 z m -93.85896,0 c 0,-1.47229 1.22692,-2.6992 2.69922,-2.6992 h 40.24279 c 1.4723,0 2.69922,1.22691 2.69922,2.6992 v 58.15574 c 0,1.47231 -1.22692,2.69922 -2.69922,2.69922 H 180.8452 c -1.4723,0 -2.69922,-1.22691 -2.69922,-2.69922 z m 299.24447,173.48571 v -40.73356 c 0,-1.47229 -1.22692,-2.6992 -2.69922,-2.6992 H 114.59182 c -1.4723,0 -2.6992,1.22691 -2.6992,2.6992 v 40.73356 c 0,1.4723 1.2269,2.69921 2.6992,2.69921 h 143.91707 c 1.4723,0 2.69922,1.22691 2.69922,2.69922 v 194.09787 c 0,1.47229 1.22691,2.69921 2.69921,2.69921 h 61.83649 c 1.4723,0 2.69921,-1.22692 2.69921,-2.69921 V 309.55107 c 0,-1.47231 1.22692,-2.69923 2.6992,-2.69923 h 143.79439 c 1.22692,0 2.45384,-1.10421 2.45384,-2.57651 z M 246.85321,447.21087 c -6.37996,-2.69921 -27.97365,-13.61875 -45.51854,-41.10164 0,0 0,0 0,0 7.11611,-31.28631 7.85226,-59.62804 7.85226,-67.60299 0,-1.22691 -0.85884,-2.33114 -2.20844,-2.57652 l -41.10164,-7.48417 c -1.59499,-0.24538 -3.06728,0.85884 -3.06728,2.45382 -0.98154,17.17681 -7.85225,102.44737 -53.73886,116.43418 -1.22692,0.36809 -2.08576,1.59501 -1.84037,2.94461 l 8.95648,53.37078 c 0.24537,1.4723 1.59498,2.45382 3.06728,2.20844 28.5871,-4.53958 48.46312,-22.69791 61.7138,-44.65969 0.98152,-1.71768 3.43535,-1.71768 4.41689,0 19.38525,29.93671 43.31009,40.85626 51.6531,44.04623 1.59499,0.61346 3.31266,-0.36806 3.55805,-2.08575 l 7.85225,-53.1254 c 0.12269,-1.22691 -0.49076,-2.33113 -1.59498,-2.8219 z m 239.49371,0.24538 c -7.48418,-2.57653 -33.98555,-13.49606 -51.65311,-41.22433 0,0 0,0 0,0 8.46571,-36.93012 7.85225,-69.81142 7.85225,-69.81142 l -46.25467,-8.34303 c 0,0 -2.82191,106.98694 -56.19268,119.99224 l 9.81531,58.27845 c 29.81402,-3.80344 50.54888,-22.32987 64.16763,-44.78238 0.98153,-1.7177 3.55805,-1.7177 4.53959,0 16.44065,27.72827 48.21773,40.48817 58.15574,43.80084 1.59499,0.49076 3.18998,-0.49076 3.43535,-2.08576 l 7.85226,-53.0027 c 0.24539,-1.22692 -0.49076,-2.45384 -1.71767,-2.82191 z"
         id="path8"
         style="fill:#ffffff;fill-opacity:1;stroke-width:1.22691453" />
    </g>
  </g>
</svg>
